<svg xmlns="http://www.w3.org/2000/svg" viewBox="0 0 307.86 70.58"><defs><style>.cls-1{fill:#fff;}</style></defs><g id="Layer_2" data-name="Layer 2"><g id="Layer_1-2" data-name="Layer 1"><path class="cls-1" d="M.47,0C3.93,2.05,7.76,3.3,11.41,5c3.43,1.56,6.91,3,10.4,4.46a1.84,1.84,0,0,1,1.35,2c.06,5,.1,5-4.6,7.09q-9.22,4-18.48,8V18a3.26,3.26,0,0,1,2-1.39c2.71-1.1,5.45-2.16,8.67-3.33C7.89,12.13,5.45,11.16,3,10.23A8.12,8.12,0,0,1,.08,8.82c0-2.68,0-5.36,0-8C.1.53-.29,0,.47,0Z"/><path class="cls-1" d="M114.22.76A17.61,17.61,0,0,1,126.69,4.9c1,.82,1.24,1.38.23,2.39-1.53,1.54-3,3.19-4.34,4.87-.72.88-1.14.76-1.9,0-2.77-2.6-6.09-2.71-9.55-1.81-1.15.3-2.23.95-2.34,2.25S109.91,14.52,111,15a14.86,14.86,0,0,0,4.25,1.14,24.68,24.68,0,0,1,4.88,1.05c5.47,1.83,8,5.05,8.31,10.46.31,6.21-1.74,10-7.3,12.12a22.18,22.18,0,0,1-22.51-3.25c-1-.78-1.23-1.36-.21-2.37,1.59-1.58,3-3.29,4.48-5,.55-.65.87-.63,1.5-.08a12.71,12.71,0,0,0,11,2.76,6.55,6.55,0,0,0,2-.68,2.49,2.49,0,0,0,1.48-2.49,2.37,2.37,0,0,0-1.78-2,16.35,16.35,0,0,0-4.31-.93,23.33,23.33,0,0,1-9-2.68,8,8,0,0,1-4.23-5.43C97.17,7.68,103,2.13,111.72.78A16,16,0,0,1,114.22.76Z"/><path class="cls-1" d="M201.81.76a17.93,17.93,0,0,1,13,4.29c.87.75,1,1.23.17,2.11-1.56,1.6-3.05,3.28-4.48,5-.7.85-1.11.78-1.89,0-2.76-2.61-6.09-2.7-9.54-1.82a2.77,2.77,0,0,0-2.36,2.25c-.14,1.42,1.12,1.86,2.17,2.35,2.06,1,4.34,1,6.52,1.52,4.9,1.08,9.22,2.92,10.52,8.46,1.89,8.08-1.44,13.79-9.57,15.71-7.15,1.68-13.86.54-19.79-4.11-1.12-.88-1.23-1.47-.17-2.51,1.51-1.47,2.86-3.1,4.23-4.71.58-.68.91-1,1.78-.21,3.23,2.78,7.06,3.41,11.17,2.65a4.22,4.22,0,0,0,2.38-1.16,2.24,2.24,0,0,0-.59-3.8,12.94,12.94,0,0,0-4.83-1.14A23.43,23.43,0,0,1,191.55,23a8.15,8.15,0,0,1-4.22-5.64C185,7,191.73,1.91,199.68.77A12.61,12.61,0,0,1,201.81.76Z"/><path class="cls-1" d="M53.48,21.27C52.87,9.91,59,5.11,65.2,2.5,73.05-.82,82.94,1,88.7,6.65c.91.88.87,1.29-.14,2-2,1.38-3.93,2.87-5.86,4.36a1.28,1.28,0,0,1-1.93,0c-4.94-3.95-10.21-3.81-14.12.28a11.24,11.24,0,0,0-.3,15.18,9.8,9.8,0,0,0,13.83.82c1.34-1.1,2-.89,3.17,0C85,30.71,86.8,32,88.58,33.23c.87.6,1.08,1,.22,1.84-8.5,8.69-25.11,7.53-32.28-2.27A17.49,17.49,0,0,1,53.48,21.27Z"/><path class="cls-1" d="M272,21.49c0-10,3.53-15.61,11.61-19C291.48-.75,301.25,1,307.11,6.58c.95.91,1,1.37-.13,2.12-2,1.34-3.84,2.78-5.7,4.24a1.39,1.39,0,0,1-2.1,0c-5.12-4.12-10.9-3.64-14.75,1.14A11.32,11.32,0,0,0,286,29.59a9.86,9.86,0,0,0,12.59-.25c1.38-1.12,2.16-.94,3.35.05,1.67,1.4,3.45,2.66,5.23,3.91.83.58.94.94.18,1.73-8.49,8.77-25.28,7.58-32.41-2.31A17.09,17.09,0,0,1,272,21.49Z"/><path class="cls-1" d="M301.61,64.58c.71-2.78,1.5-5.53,2.09-8.33.4-1.88,1.8-1.44,2.85-1.26,1.45.25.48,1.31.32,2-1,4-2.13,8-3.17,12-.26,1-.6,1.65-1.89,1.59S300,70.29,299.7,69C299,65.91,298,62.87,297,59.28c-1,3.57-1.84,6.59-2.61,9.64a1.81,1.81,0,0,1-2.05,1.66c-1.34,0-1.74-.55-2-1.68-1-4.08-2.18-8.13-3.2-12.21-.14-.54-1.11-1.61.35-1.71,1-.06,2.38-.76,2.79,1.08.59,2.61,1.31,5.19,2,7.78a12.27,12.27,0,0,0,.5,1.25c.79-3,1.58-5.64,2.2-8.37a2,2,0,0,1,2.3-1.86c1.48,0,1.65.79,1.9,1.84.65,2.64,1.36,5.26,2,7.89Z"/><path class="cls-1" d="M26.27,41.44c-3.33,0-6.66,0-10,0-1.14,0-1.63-.27-1.54-1.48a32.86,32.86,0,0,0,0-4.21c-.05-1,.36-1.3,1.34-1.29,7,0,14,0,20.94,0,1.17,0,1.4.47,1.35,1.48a35.76,35.76,0,0,0,0,4c.08,1.19-.39,1.52-1.54,1.5C33.32,41.4,29.79,41.44,26.27,41.44Z"/><path class="cls-1" d="M259.11,61.46c0,2.56-.06,5.09,0,7.61,0,1.24-.46,1.5-1.58,1.48s-1.64-.13-1.62-1.43c.08-4.27,0-8.55,0-12.83,0-.46-.25-1.1.44-1.3s.93.29,1.29.65l9,9c0-3.11.05-5.69,0-8.27,0-1.17.33-1.55,1.52-1.54s1.71.26,1.68,1.59c-.08,4.09,0,8.17-.05,12.26,0,.58.38,1.37-.4,1.7s-1.14-.4-1.58-.83c-2.37-2.33-4.72-4.69-7.09-7C260.37,62.16,260.07,61.52,259.11,61.46Z"/><path class="cls-1" d="M252.22,60.76c0,1.21,0,2.42,0,3.63,0,3.55-2.43,5.89-6.22,6.12s-7-2-7.22-5.35c-.22-3-.06-6.12-.08-9.18,0-1.37,1-1,1.78-1.06S242,55,242,56.1q-.06,3.82,0,7.65c0,2.38,1.23,3.59,3.5,3.62s3.58-1.21,3.61-3.69.07-4.85,0-7.27c0-1.21.44-1.52,1.57-1.52s1.69.21,1.61,1.47C252.15,57.82,252.22,59.29,252.22,60.76Z"/><path class="cls-1" d="M278.22,70.51a8.06,8.06,0,0,1-3.94-1.05c-.58-.39-1.94-.56-1.29-1.63.48-.79,1.15-2.13,2.68-1a4.72,4.72,0,0,0,3.52.62c.88-.12,1.64-.47,1.75-1.47s-.62-1.64-1.55-1.89-1.78-.25-2.63-.5c-1.78-.53-3.39-1.27-3.53-3.49a4.14,4.14,0,0,1,2.8-4.51,7.22,7.22,0,0,1,7.13.58c.42.26,1.29.64.59,1.26s-.86,2-2.16,1.19A4.47,4.47,0,0,0,278.1,58a1.54,1.54,0,0,0-1.41,1.36c-.08.91.57,1.22,1.25,1.45a13.68,13.68,0,0,0,1.68.4c3.54.76,5.14,2.45,4.79,5.1C284.11,68.67,281.51,70.51,278.22,70.51Z"/><path class="cls-1" d="M149.39,24.91c4.1.1,8.21,0,12.32,0h9c4.9,0,4.89,0,4.73-4.92-.57-17.69-17.06-22.57-28.83-17-7.77,3.66-11.87,12.26-10.39,21.19,1.44,8.68,6.8,14.55,15.16,16.25a28.29,28.29,0,0,0,15.35-1.19,14.09,14.09,0,0,0,4.85-3c.91-.85,1.16-1.46.06-2.41a52.39,52.39,0,0,1-4.36-4.33,1.45,1.45,0,0,0-2.26-.24,16.26,16.26,0,0,1-8,2.46c-4.07.29-7.74-1.81-8.9-5C147.73,25.45,147.81,24.87,149.39,24.91Zm-1.06-9.46c.6-2.84,3.24-4.86,7-5.27s7.56,1.64,8.59,4.72c.45,1.34.48,2.15-1.38,2-2.11-.15-4.23,0-6.35,0s-4.5-.05-6.74,0C148.24,17,148.11,16.5,148.33,15.45Z"/><path class="cls-1" d="M244.38.47c-11.77,0-20.58,8.68-20.59,20.41a20,20,0,0,0,20.33,20.49c11.8.07,20.67-8.64,20.7-20.32S256.13.5,244.38.47Zm-.09,31.11c-6,0-10.29-4.38-10.32-10.5,0-6.3,4.22-10.77,10.24-10.78s10.24,4.31,10.3,10.51S250.36,31.58,244.29,31.58Z"/></g></g></svg>