<svg id="share" xmlns="http://www.w3.org/2000/svg" width="100" height="100" viewBox="0 0 100 100">
  <g id="Group_226" data-name="Group 226">
    <path id="Path_70" data-name="Path 70" d="M83.333,70.833a12.452,12.452,0,0,0-5.389,1.218L67.381,61.488a20.837,20.837,0,0,0,0-22.976l7.489-7.489a16.67,16.67,0,1,0-5.893-5.893L61.488,32.62a20.837,20.837,0,0,0-22.976,0l-14.73-14.73a12.492,12.492,0,1,0-5.893,5.893l14.73,14.73a20.837,20.837,0,0,0,0,22.976l-7.489,7.489a16.67,16.67,0,1,0,5.892,5.893l7.489-7.489a20.837,20.837,0,0,0,22.976,0L72.051,77.944a12.5,12.5,0,1,0,11.282-7.111Zm0-62.5a8.333,8.333,0,1,1-5.82,14.3c-.023-.025-.044-.051-.068-.075s-.051-.045-.075-.068A8.332,8.332,0,0,1,83.333,8.333Zm-75,4.167a4.167,4.167,0,1,1,7.121,2.939l-.008.007-.007.008A4.167,4.167,0,0,1,8.333,12.5Zm8.333,79.167a8.333,8.333,0,1,1,5.8-14.312c.029.03.054.063.084.093s.062.055.093.084a8.332,8.332,0,0,1-5.979,14.136Zm24.5-32.818-.009-.01-.01-.009a12.5,12.5,0,0,1,17.66-17.693l.025.028.028.025a12.5,12.5,0,0,1,.006,17.617c-.011.011-.023.02-.034.031l-.031.034a12.5,12.5,0,0,1-17.634-.022ZM83.333,87.5a4.167,4.167,0,0,1-2.954-7.106l.008-.007.007-.008A4.167,4.167,0,1,1,83.333,87.5Z" fill="#fff"/>
  </g>
</svg>
