<?xml version="1.0" standalone="no"?>
<!DOCTYPE svg PUBLIC "-//W3C//DTD SVG 1.1//EN" "http://www.w3.org/Graphics/SVG/1.1/DTD/svg11.dtd" >
<svg xmlns="http://www.w3.org/2000/svg" xmlns:xlink="http://www.w3.org/1999/xlink" version="1.1">
<metadata></metadata>
<defs>
<font id="core_sans_c45_regular" horiz-adv-x="1328" >
<font-face units-per-em="2048" ascent="1638" descent="-410" />
<missing-glyph horiz-adv-x="608" />
<glyph unicode="&#xfb01;" horiz-adv-x="1286" d="M46 897v164h183v64q0 188 94 279t289 91q65 0 111 -8v-161q-44 5 -95 5q-113 0 -162.5 -51.5t-49.5 -156.5v-62h696v-1061h-186v897h-510v-897h-187v897h-183zM896 1357q0 52 35.5 87.5t87.5 35.5t87.5 -35.5t35.5 -87.5q0 -51 -35.5 -86.5t-87.5 -35.5t-87.5 35.5 t-35.5 86.5z" />
<glyph unicode="&#xfb02;" horiz-adv-x="1286" d="M46 897v164h183v64q0 187 93.5 278.5t286.5 91.5q54 0 109 -8v-161q-43 5 -93 5q-112 0 -160.5 -51t-48.5 -157v-62h302v-164h-302v-897h-187v897h-183zM926 0v1495h186v-1495h-186z" />
<glyph unicode="&#xfb03;" horiz-adv-x="1982" d="M46 897v164h183v64q0 188 95 279t296 91q88 0 156 -19l-30 -158q-60 13 -117 13q-114 0 -163.5 -51.5t-49.5 -156.5v-62h510v64q0 188 93.5 279t289.5 91q65 0 110 -8v-161q-44 5 -95 5q-113 0 -162.5 -51t-49.5 -157v-62h696v-1061h-186v897h-510v-897h-186v897h-510 v-897h-187v897h-183zM1592 1357q0 52 35.5 87.5t87.5 35.5t87.5 -35.5t35.5 -87.5q0 -51 -35.5 -86.5t-87.5 -35.5t-87.5 35.5t-35.5 86.5z" />
<glyph unicode="&#xfb04;" horiz-adv-x="1982" d="M46 897v164h183v64q0 188 95 279t296 91q88 0 156 -19l-30 -158q-60 13 -117 13q-114 0 -163.5 -51t-49.5 -157v-62h510v64q0 187 93 278.5t287 91.5q53 0 108 -8v-161q-43 5 -93 5q-112 0 -160.5 -51t-48.5 -157v-62h302v-164h-302v-897h-186v897h-510v-897h-187v897 h-183zM1622 0v1495h186v-1495h-186z" />
<glyph horiz-adv-x="0" />
<glyph horiz-adv-x="0" />
<glyph unicode="&#xd;" horiz-adv-x="681" />
<glyph unicode="&#x9;" horiz-adv-x="0" />
<glyph unicode=" "  horiz-adv-x="608" />
<glyph unicode="&#x09;" horiz-adv-x="608" />
<glyph unicode="&#xa0;" horiz-adv-x="608" />
<glyph unicode="!" horiz-adv-x="632" d="M189 102.5q0 54.5 36.5 90.5t91 36t90.5 -36t36 -90.5t-36 -91t-90.5 -36.5t-91 36.5t-36.5 91zM220 403v1031h193v-1031h-193z" />
<glyph unicode="&#x22;" horiz-adv-x="986" d="M228 854v580h187v-580h-187zM571 854v580h187v-580h-187z" />
<glyph unicode="#" horiz-adv-x="1399" d="M78 368v156h240l67 385h-231v157h258l63 368h183l-63 -368h329l63 368h183l-63 -368h215v-157h-242l-66 -385h232v-156h-259l-62 -368h-184l63 368h-329l-62 -368h-184l63 368h-214zM502 524h328l67 385h-329z" />
<glyph unicode="$" horiz-adv-x="1204" d="M106 206l122 131q145 -165 327 -189v518q-207 47 -313 150.5t-106 253.5q0 164 116 270t303 117v185h134v-191q207 -28 352 -175l-114 -138q-120 113 -238 140v-466q223 -55 325 -161t102 -268q0 -164 -114.5 -274t-312.5 -129v-189h-134v187q-133 11 -251.5 72 t-197.5 156zM332 1083q0 -159 223 -234v436q-101 -11 -162 -66t-61 -136zM689 153q106 18 169 79t63 150q0 173 -232 249v-478z" />
<glyph unicode="%" horiz-adv-x="1854" d="M94 1088.5q0 149.5 107 254.5t268 105t268 -105t107 -254.5t-107 -254.5t-268 -105t-268 105t-107 254.5zM275 1088.5q0 -80.5 54.5 -141t139.5 -60.5t139.5 60.5t54.5 141t-54.5 141t-139.5 60.5t-139.5 -60.5t-54.5 -141zM461 0l738 1434h195l-739 -1434h-194z M1011 345.5q0 149.5 107 254.5t267.5 105t267.5 -105t107 -254.5t-107 -254.5t-267.5 -105t-267.5 105t-107 254.5zM1192 345q0 -81 54 -141.5t139 -60.5t139.5 60.5t54.5 141.5t-54.5 141.5t-139.5 60.5t-139 -60.5t-54 -141.5z" />
<glyph unicode="&#x26;" horiz-adv-x="1500" d="M126 383q0 244 268 409q-87 90 -124 163.5t-37 158.5q0 146 114 245t275 99q144 0 247 -66.5t145 -182.5l-168 -64q-25 74 -84.5 116.5t-139.5 42.5q-86 0 -145.5 -56t-59.5 -132q0 -63 45 -128t159 -170l417 -384q69 134 85 305l182 -26q-20 -228 -129 -407l333 -306 h-260l-186 170q-189 -195 -453 -195q-208 0 -346 117.5t-138 290.5zM312 395q0 -108 84.5 -182t213.5 -74q86 0 170.5 38.5t153.5 112.5l-420 386q-202 -120 -202 -281z" />
<glyph unicode="'" horiz-adv-x="643" d="M228 854v580h187v-580h-187z" />
<glyph unicode="(" horiz-adv-x="850" d="M246 624.5q0 272.5 99.5 522.5t279.5 430l132 -101q-153 -167 -236 -390.5t-83 -461t83 -460.5t236 -390l-132 -102q-179 180 -279 430t-100 522.5z" />
<glyph unicode=")" horiz-adv-x="850" d="M94 -226q153 167 236 390t83 460.5t-83 461t-236 390.5l132 101q179 -180 279 -430t100 -522.5t-99.5 -522t-279.5 -430.5z" />
<glyph unicode="*" horiz-adv-x="1136" d="M137 520l282 160l-282 160l79 137l277 -164l-5 320h160l-4 -320l277 164l78 -137l-281 -160l281 -160l-78 -137l-277 164l4 -320h-160l5 320l-277 -164z" />
<glyph unicode="+" horiz-adv-x="1175" d="M122 600v161h373v384h186v-384h373v-161h-373v-385h-186v385h-373z" />
<glyph unicode="," horiz-adv-x="608" d="M160 -251l104 233q-40 12 -64 45t-24 76q0 54 37 91t91 37t91 -36.5t37 -91.5q0 -30 -13 -58l-135 -296h-124z" />
<glyph unicode="-" horiz-adv-x="823" d="M121 592v176h581v-176h-581z" />
<glyph unicode="." horiz-adv-x="608" d="M176 103.5q0 54.5 37 91t91 36.5t91 -36.5t37 -91t-37 -91.5t-91 -37t-91 37t-37 91.5z" />
<glyph unicode="/" horiz-adv-x="935" d="M19 -287l700 1823h197l-699 -1823h-198z" />
<glyph unicode="0" horiz-adv-x="1216" d="M124 717q0 159 30 292.5t88.5 234.5t152 157.5t213.5 56.5t213.5 -56.5t152 -157.5t89 -234.5t30.5 -292.5t-30.5 -292.5t-89 -234.5t-152 -158t-213.5 -57t-213.5 57t-152 158t-88.5 234.5t-30 292.5zM313 717q0 -171 30.5 -295.5t97.5 -199t167.5 -74.5t167.5 74.5 t97 199t30 295.5t-30 295.5t-97 198.5t-167.5 74t-167.5 -74t-97.5 -198.5t-30.5 -295.5z" />
<glyph unicode="1" horiz-adv-x="1216" d="M237 1235l366 199h174v-1434h-189v1243l-272 -148z" />
<glyph unicode="2" horiz-adv-x="1216" d="M172 1145q42 143 156 228t281 85q195 0 321 -112.5t126 -294.5q0 -115 -48 -213t-156 -218l-412 -456h601v-164h-850v156l514 565q87 96 124 172.5t37 156.5q0 108 -72 176t-185 68q-205 0 -278 -218z" />
<glyph unicode="3" horiz-adv-x="1216" d="M105 212l131 109q120 -181 307 -182q135 0 226 88.5t91 216.5q0 127 -91 216.5t-226 89.5q-41 0 -84 -14l-75 95l369 436h-568v167h798v-167l-342 -396q182 -13 295.5 -138.5t113.5 -305.5q0 -86 -36 -167t-99.5 -144.5t-159 -102t-206.5 -38.5q-142 0 -255.5 61.5 t-188.5 175.5z" />
<glyph unicode="4" horiz-adv-x="1216" d="M81 291v171l654 972h190v-970h169v-173h-169v-291h-190v291h-654zM291 462h444v660z" />
<glyph unicode="5" horiz-adv-x="1216" d="M127 208l135 110q119 -179 301 -179q135 0 225 87.5t90 217.5t-90 218t-225 88q-75 0 -137 -32t-96 -83l-133 16l86 783h731v-167h-563l-51 -425q81 69 208 68q124 0 228 -55t167.5 -162t63.5 -244q0 -209 -137 -341.5t-361 -132.5q-139 0 -254 60.5t-188 172.5z" />
<glyph unicode="6" horiz-adv-x="1216" d="M109 446q0 138 70 248l475 740h202l-355 -550q52 32 130 31q193 0 332.5 -133.5t139.5 -335.5q0 -133 -69.5 -242.5t-183 -169t-244.5 -59.5t-244.5 59.5t-183 169t-69.5 242.5zM298 446q0 -129 89.5 -218t218.5 -89q128 0 217.5 89t89.5 218q0 130 -89.5 219.5 t-217.5 89.5t-218 -89t-90 -220z" />
<glyph unicode="7" horiz-adv-x="1216" d="M173 1267v167h878v-160l-535 -1274h-213l535 1267h-665z" />
<glyph unicode="8" horiz-adv-x="1216" d="M119 418q0 129 73 229.5t199 140.5q-87 36 -142.5 118t-55.5 177q0 158 118 266.5t297 108.5t297.5 -108.5t118.5 -266.5q0 -95 -56 -177t-143 -118q126 -41 199.5 -141t73.5 -229q0 -187 -141.5 -315t-348.5 -128t-348 127.5t-141 315.5zM308 421q0 -117 86.5 -199.5 t213.5 -82.5t213.5 82.5t86.5 199.5t-86.5 199.5t-213.5 82.5t-213.5 -82.5t-86.5 -199.5zM376 1079q0 -89 67.5 -153.5t165 -64.5t165 64.5t67.5 153.5t-67.5 152t-165 63t-165 -63t-67.5 -152z" />
<glyph unicode="9" horiz-adv-x="1216" d="M114 987q0 133 69.5 242.5t182.5 169t244 59.5t245 -59.5t183.5 -169t69.5 -242.5q0 -138 -71 -248l-475 -739h-202l356 550q-52 -32 -130 -32q-193 0 -332.5 133.5t-139.5 335.5zM303 987q0 -130 89.5 -219t217.5 -89t218.5 89t90.5 219q0 129 -90 218t-219 89 q-128 0 -217.5 -89t-89.5 -218z" />
<glyph unicode=":" horiz-adv-x="608" d="M176 103.5q0 54.5 37 91t91 36.5t91 -36.5t37 -91t-37 -91.5t-91 -37t-91 37t-37 91.5zM176 957.5q0 54.5 37 91t91 36.5t91 -36.5t37 -91t-37 -91.5t-91 -37t-91 37t-37 91.5z" />
<glyph unicode=";" horiz-adv-x="608" d="M160 -251l104 233q-40 12 -64 45t-24 76q0 54 37 91t91 37t91 -36.5t37 -91.5q0 -30 -13 -58l-135 -296h-124zM176 957.5q0 54.5 37 91t91 36.5t91 -36.5t37 -91t-37 -91.5t-91 -37t-91 37t-37 91.5z" />
<glyph unicode="&#x3c;" horiz-adv-x="1175" d="M132 611v135l886 498v-211l-650 -354l650 -354v-211z" />
<glyph unicode="=" horiz-adv-x="1175" d="M122 369v160h932v-160h-932zM122 831v161h932v-161h-932z" />
<glyph unicode="&#x3e;" horiz-adv-x="1175" d="M158 114v211l650 354l-650 354v211l885 -498v-135z" />
<glyph unicode="?" horiz-adv-x="1119" d="M83 1302q184 157 423 156q141 0 253.5 -57.5t172.5 -150t60 -199.5q0 -151 -111.5 -262.5t-297.5 -139.5v-240h-193v362q187 0 297 79t110 202q0 101 -87.5 168.5t-225.5 67.5q-157 0 -300 -126zM361 102.5q0 54.5 36.5 90.5t91 36t90.5 -36t36 -90.5t-36 -91 t-90.5 -36.5t-91 36.5t-36.5 91z" />
<glyph unicode="@" horiz-adv-x="1966" d="M76 563q0 187 71.5 354t193 285.5t288.5 187t351 68.5q191 0 360 -65t290 -177t190.5 -270.5t69.5 -338.5q0 -221 -115.5 -356.5t-296.5 -135.5q-75 0 -142 41.5t-100 104.5q-51 -68 -125 -107t-159 -39q-116 0 -210.5 58.5t-147 159t-52.5 218.5t52.5 218t147.5 159 t210 59q162 0 273 -134v114h157v-629q13 -36 45 -58.5t70 -22.5q98 0 166.5 94t68.5 256q0 147 -60.5 279.5t-162 226t-239.5 148.5t-290 55t-290 -59t-238 -159t-159 -239.5t-59 -295t59 -295t161 -240t245.5 -159t305.5 -58.5q278 0 497 156l64 -132q-266 -167 -561 -167 q-196 0 -368.5 68.5t-295.5 187t-194 285t-71 354.5zM701 551q0 -124 79.5 -209t196.5 -85q82 0 148.5 46t99.5 122v252q-33 76 -99.5 122t-148.5 46q-117 0 -196.5 -85t-79.5 -209z" />
<glyph unicode="A" horiz-adv-x="1394" d="M49 0l541 1434h215l541 -1434h-210l-134 370h-610l-133 -370h-210zM450 537h495l-248 684z" />
<glyph unicode="B" horiz-adv-x="1264" d="M172 0v1434h504q191 0 299.5 -103t108.5 -277q0 -111 -52.5 -186t-140.5 -107q118 -26 196.5 -120t78.5 -232q0 -182 -116.5 -295.5t-312.5 -113.5h-565zM365 167h356q112 0 181 67.5t69 180t-69 180.5t-181 68h-356v-496zM365 823h298q102 0 164 58.5t62 163 t-62.5 163.5t-163.5 59h-298v-444z" />
<glyph unicode="C" horiz-adv-x="1400" d="M83 716.5q0 154.5 58.5 292t158.5 236t240 156t297 57.5q266 0 473 -159l-98 -145q-93 65 -182 99.5t-193 34.5q-233 0 -395.5 -166t-162.5 -405.5t162.5 -405.5t395.5 -166q211 0 388 146l102 -145q-209 -171 -490 -171q-157 0 -297 57.5t-240 156.5t-158.5 236 t-58.5 291.5z" />
<glyph unicode="D" horiz-adv-x="1446" d="M172 0v1434h486q324 0 515 -194t191 -523t-191 -523t-515 -194h-486zM365 170h293q232 0 371 142t139 405t-139 405t-371 142h-293v-1094z" />
<glyph unicode="E" horiz-adv-x="1156" d="M172 0v1434h847v-167h-654v-463h602v-167h-602v-470h672v-167h-865z" />
<glyph unicode="F" horiz-adv-x="1082" d="M172 0v1434h826v-167h-633v-462h581v-167h-581v-638h-193z" />
<glyph unicode="G" horiz-adv-x="1474" d="M83 716.5q0 154.5 58.5 292t158.5 236t240 156t297 57.5q266 0 473 -159l-98 -145q-93 65 -182 99.5t-193 34.5q-233 0 -395.5 -166t-162.5 -405.5t162 -405.5t396 -166q82 0 163.5 25.5t144.5 70.5v349h-392v167h584v-600q-97 -85 -226.5 -133.5t-273.5 -48.5 q-157 0 -297 57.5t-240 156.5t-158.5 236t-58.5 291.5z" />
<glyph unicode="H" horiz-adv-x="1427" d="M172 0v1434h193v-630h698v630h192v-1434h-192v637h-698v-637h-193z" />
<glyph unicode="I" horiz-adv-x="583" d="M196 0v1434h192v-1434h-192z" />
<glyph unicode="J" horiz-adv-x="930" d="M49 45l63 163q45 -28 105.5 -45.5t112.5 -17.5q250 0 250 296v993h192v-993q0 -466 -438 -466q-75 0 -152.5 19t-132.5 51z" />
<glyph unicode="K" horiz-adv-x="1229" d="M172 0v1434h193v-630h122l439 630h220l-495 -710l577 -724h-227l-507 637h-129v-637h-193z" />
<glyph unicode="L" horiz-adv-x="1054" d="M172 0v1434h193v-1267h642v-167h-835z" />
<glyph unicode="M" horiz-adv-x="1738" d="M172 0v1434h179l518 -767l519 767h179v-1434h-187v1115l-449 -661h-123l-450 661v-1115h-186z" />
<glyph unicode="N" horiz-adv-x="1432" d="M172 0v1434h185l717 -1100v1100h187v-1434h-186l-717 1100v-1100h-186z" />
<glyph unicode="O" horiz-adv-x="1673" d="M83 716.5q0 154.5 58.5 292t158.5 236t240 156t296.5 57.5t296.5 -57.5t240.5 -156t158.5 -236t58 -292t-58 -291.5t-158.5 -236t-240.5 -156.5t-296.5 -57.5t-296.5 57.5t-240 156.5t-158.5 236t-58.5 291.5zM279 716.5q0 -239.5 162 -405.5t395.5 -166t396 166 t162.5 405.5t-162.5 405.5t-396 166t-395.5 -166t-162 -405.5z" />
<glyph unicode="P" horiz-adv-x="1198" d="M172 0v1434h458q227 0 359.5 -121.5t132.5 -325.5t-132.5 -325t-359.5 -121h-265v-541h-193zM365 708h258q143 0 223.5 75t80.5 204t-80.5 204.5t-223.5 75.5h-258v-559z" />
<glyph unicode="Q" horiz-adv-x="1673" d="M83 716.5q0 154.5 58.5 292t158.5 236t240 156t296.5 57.5t296.5 -57.5t240.5 -156t158.5 -236t58 -291.5q0 -151 -54.5 -284.5t-154.5 -234.5l204 -220l-124 -113l-212 227q-186 -117 -412 -117q-157 0 -297 57.5t-240 156.5t-158.5 236t-58.5 291.5zM279 716.5 q0 -239.5 162.5 -405.5t395.5 -166q156 0 288 81l-252 273l124 113l257 -277q140 162 141 382q0 240 -162.5 405.5t-396 165.5t-395.5 -166t-162 -405.5z" />
<glyph unicode="R" horiz-adv-x="1228" d="M172 0v1434h458q227 0 359.5 -121.5t132.5 -325.5q0 -172 -96 -286.5t-265 -147.5l388 -553h-213l-379 541h-192v-541h-193zM365 708h258q143 0 223.5 75t80.5 204t-80.5 204.5t-223.5 75.5h-258v-559z" />
<glyph unicode="S" horiz-adv-x="1204" d="M106 206l122 131q75 -85 173 -138.5t202 -53.5q141 0 229.5 65t88.5 172q0 101 -80 171t-261 107q-219 46 -331.5 150.5t-112.5 259.5q0 172 126.5 280t328.5 108q270 0 450 -182l-114 -138q-159 150 -325 150h-2q-119 0 -193.5 -57t-74.5 -148q0 -97 81 -161.5 t247 -102.5q240 -54 348 -161.5t108 -274.5q0 -181 -136.5 -294.5t-367.5 -113.5q-148 0 -283 62.5t-223 168.5z" />
<glyph unicode="T" horiz-adv-x="1124" d="M63 1267v167h998v-167h-403v-1267h-192v1267h-403z" />
<glyph unicode="U" horiz-adv-x="1357" d="M159 501v933h192v-955q0 -147 93.5 -239.5t234.5 -92.5t234.5 92.5t93.5 239.5v955h192v-933q0 -156 -69 -276t-187 -184t-264.5 -64t-264 64t-186.5 184t-69 276z" />
<glyph unicode="V" horiz-adv-x="1392" d="M48 1434h207l441 -1191l442 1191h207l-541 -1434h-215z" />
<glyph unicode="W" horiz-adv-x="1980" d="M48 1434h203l311 -1152l332 1152h192l332 -1152l312 1152h202l-411 -1434h-193l-338 1168l-338 -1168h-192z" />
<glyph unicode="X" horiz-adv-x="1290" d="M40 0l490 729l-472 705h211l376 -565l376 565h211l-472 -705l490 -729h-211l-394 589l-394 -589h-211z" />
<glyph unicode="Y" horiz-adv-x="1316" d="M48 1434h208l402 -658l403 658h208l-514 -846v-588h-193v588z" />
<glyph unicode="Z" horiz-adv-x="1229" d="M124 0v167l741 1100h-710v167h941v-167l-742 -1100h762v-167h-992z" />
<glyph unicode="[" horiz-adv-x="850" d="M240 -287v1823h560v-167h-368v-1489h368v-167h-560z" />
<glyph unicode="\" horiz-adv-x="935" d="M19 1536h198l699 -1823h-197z" />
<glyph unicode="]" horiz-adv-x="850" d="M51 -120h368v1489h-368v167h560v-1823h-560v167z" />
<glyph unicode="^" horiz-adv-x="1257" d="M112 797l418 637h197l419 -637h-209l-308 471l-308 -471h-209z" />
<glyph unicode="_" horiz-adv-x="1024" d="M0 -206h1024v-145h-1024v145z" />
<glyph unicode="`" horiz-adv-x="851" d="M129 1495h190l281 -345h-184z" />
<glyph unicode="a" d="M76 530.5q0 149.5 69 276t194 202.5t279 76q226 0 374 -161v137h187v-1061h-187v137q-146 -162 -374 -162q-154 0 -279 76.5t-194 203t-69 276zM265 530.5q0 -161.5 111 -275t273 -113.5q112 0 203.5 57.5t139.5 152.5v354q-48 96 -139.5 154.5t-203.5 58.5 q-162 0 -273 -113.5t-111 -275z" />
<glyph unicode="b" d="M150 0v1495h186v-571q148 161 374 161q154 0 279 -76t194 -202.5t69 -276t-69 -276t-194.5 -203t-278.5 -76.5q-227 0 -374 162v-137h-186zM336 352q48 -95 139.5 -152.5t203.5 -57.5q162 0 273 113.5t111 275t-111 275t-273 113.5q-112 0 -203.5 -58.5t-139.5 -154.5 v-354z" />
<glyph unicode="c" horiz-adv-x="1124" d="M76 530.5q0 151.5 73.5 278.5t205.5 201.5t294 74.5q222 0 386 -140l-97 -146q-135 120 -289 120q-162 0 -273 -113.5t-111 -275t111 -275t273 -113.5q166 0 296 128l110 -136q-164 -159 -406 -159q-162 0 -294 75t-205.5 202t-73.5 278.5z" />
<glyph unicode="d" d="M76 530.5q0 149.5 69 276t194 202.5t279 76q226 0 374 -161v571h187v-1495h-187v137q-146 -162 -374 -162q-154 0 -279 76.5t-194 203t-69 276zM265 530.5q0 -161.5 111 -275t273 -113.5q112 0 203.5 57.5t139.5 152.5v354q-48 96 -139.5 154.5t-203.5 58.5 q-162 0 -273 -113.5t-111 -275z" />
<glyph unicode="e" horiz-adv-x="1253" d="M76 530q0 114 42.5 216.5t116.5 177t178.5 118t223.5 43.5q155 0 279 -71.5t193 -193t69 -266.5q0 -41 -10 -82h-902q15 -144 122.5 -240t258.5 -96q195 0 335 154l128 -119q-84 -95 -201.5 -145.5t-256.5 -50.5q-127 0 -235.5 43.5t-182.5 118.5t-116 177t-42 216z M273 627h709q-22 130 -117 214t-228 84q-131 0 -233.5 -85t-130.5 -213z" />
<glyph unicode="f" horiz-adv-x="763" d="M46 897v164h183v64q0 187 93.5 278.5t286.5 91.5q54 0 109 -8v-161q-43 5 -93 5q-112 0 -160.5 -51t-48.5 -157v-62h302v-164h-302v-897h-187v897h-183z" />
<glyph unicode="g" d="M76 530.5q0 149.5 69 276t194.5 202.5t278.5 76q226 0 374 -161v137h187v-1027q0 -232 -140.5 -370.5t-396.5 -138.5q-146 0 -269.5 57t-210.5 156l123 121q154 -173 356 -173q160 0 255.5 90t95.5 246v115q-146 -162 -374 -162q-154 0 -279 76.5t-194 203t-69 276z M265 530.5q0 -161.5 111 -275t273 -113.5q112 0 203.5 57.5t139.5 152.5v354q-48 96 -139.5 154.5t-203.5 58.5q-162 0 -273 -113.5t-111 -275z" />
<glyph unicode="h" horiz-adv-x="1235" d="M150 0v1495h186v-597q62 82 150.5 134.5t193.5 52.5q188 0 307.5 -120.5t119.5 -312.5v-652h-186v642q0 120 -77.5 198.5t-198.5 78.5q-92 0 -173.5 -62.5t-135.5 -153.5v-703h-186z" />
<glyph unicode="i" horiz-adv-x="534" d="M144 1357q0 52 35.5 87.5t87.5 35.5t87.5 -35.5t35.5 -87.5q0 -51 -35.5 -86.5t-87.5 -35.5t-87.5 35.5t-35.5 86.5zM174 0v1061h186v-1061h-186z" />
<glyph unicode="j" horiz-adv-x="534" d="M-34 -310q18 -1 59 -1q75 0 112 40t37 131v1201h186v-1198q0 -177 -76.5 -257.5t-237.5 -80.5q-37 0 -80 4v161zM144 1357q0 52 35.5 87.5t87.5 35.5t87.5 -35.5t35.5 -87.5q0 -51 -35.5 -86.5t-87.5 -35.5t-87.5 35.5t-35.5 86.5z" />
<glyph unicode="k" horiz-adv-x="1053" d="M150 0v1495h186v-825h133l300 391h221l-366 -471l422 -590h-216l-363 509h-131v-509h-186z" />
<glyph unicode="l" horiz-adv-x="534" d="M174 0v1495h186v-1495h-186z" />
<glyph unicode="m" horiz-adv-x="1916" d="M150 0v1061h186v-159q56 79 139 131t181 52q121 0 214.5 -58.5t141.5 -159.5q62 99 159.5 158.5t210.5 59.5q180 0 293 -119t113 -306v-660h-186v650q0 116 -68.5 192.5t-178.5 76.5q-87 0 -163 -61t-132 -157q2 -25 2 -41v-660h-186v650q0 116 -68.5 192.5t-178.5 76.5 q-87 0 -162.5 -60t-130.5 -154v-705h-186z" />
<glyph unicode="n" horiz-adv-x="1235" d="M150 0v1061h186v-163q62 82 150.5 134.5t193.5 52.5q188 0 307.5 -120.5t119.5 -312.5v-652h-186v642q0 120 -77.5 198.5t-198.5 78.5q-92 0 -173.5 -62.5t-135.5 -153.5v-703h-186z" />
<glyph unicode="o" horiz-adv-x="1298" d="M76 530.5q0 151.5 73.5 278.5t205.5 201.5t294 74.5t294 -74.5t206 -201.5t74 -278.5t-74 -278.5t-206 -202t-294 -75t-294 75t-205.5 202t-73.5 278.5zM265 530.5q0 -161.5 111 -275t273 -113.5t273 113.5t111 275t-111 275t-273 113.5t-273 -113.5t-111 -275z" />
<glyph unicode="p" d="M150 -475v1536h186v-137q148 161 374 161q154 0 279 -76t194 -202.5t69 -276t-69 -276t-194.5 -203t-278.5 -76.5q-227 0 -374 162v-612h-186zM336 352q48 -95 139.5 -152.5t203.5 -57.5q162 0 273 113.5t111 275t-111 275t-273 113.5q-112 0 -203.5 -58.5t-139.5 -154.5 v-354z" />
<glyph unicode="q" d="M76 530.5q0 149.5 69 276t194 202.5t279 76q226 0 374 -161v137h187v-1536h-187v612q-146 -162 -374 -162q-154 0 -279 76.5t-194 203t-69 276zM265 530.5q0 -161.5 111 -275t273 -113.5q112 0 203.5 57.5t139.5 152.5v354q-48 96 -139.5 154.5t-203.5 58.5 q-162 0 -273 -113.5t-111 -275z" />
<glyph unicode="r" horiz-adv-x="811" d="M150 0v1061h186v-174q146 198 328 198h2q55 0 99 -20l-15 -166q-56 20 -109 20q-88 0 -168.5 -66t-136.5 -172v-681h-186z" />
<glyph unicode="s" horiz-adv-x="954" d="M75 152l105 126q53 -65 130 -103.5t165 -38.5q100 0 158.5 43t58.5 114q0 68 -56 112t-179 67q-345 67 -345 320q0 127 100.5 210t264.5 83q206 0 357 -141l-101 -127q-125 108 -243 108q-83 0 -137.5 -38.5t-54.5 -98.5q0 -58 55.5 -102t163.5 -65q183 -36 272.5 -117.5 t89.5 -213.5q0 -138 -105 -226.5t-287 -88.5q-128 0 -235 47.5t-177 129.5z" />
<glyph unicode="t" horiz-adv-x="782" d="M46 897v164h192v291l186 16v-307h290v-164h-290v-558q0 -102 48 -151t159 -49q56 0 95 5v-160q-41 -8 -111 -9q-194 0 -285.5 88.5t-91.5 273.5v560h-192z" />
<glyph unicode="u" horiz-adv-x="1235" d="M129 409v652h186v-642q0 -120 77.5 -198.5t198.5 -78.5q93 0 174 62t135 153v704h186v-1061h-186v163q-62 -82 -151 -135t-193 -53q-188 0 -307.5 121t-119.5 313z" />
<glyph unicode="v" horiz-adv-x="1071" d="M28 1061h194l314 -817l313 817h194l-411 -1061h-193z" />
<glyph unicode="w" horiz-adv-x="1597" d="M28 1061h194l244 -811l236 811h193l237 -811l243 811h195l-340 -1061h-193l-238 815l-239 -815h-192z" />
<glyph unicode="x" horiz-adv-x="1071" d="M28 0l390 542l-364 519h208l274 -393l273 393h208l-364 -519l390 -542h-207l-300 416l-300 -416h-208z" />
<glyph unicode="y" horiz-adv-x="1075" d="M28 1061h194l316 -820l315 820h195l-599 -1536h-195l188 479z" />
<glyph unicode="z" horiz-adv-x="1036" d="M100 0v164l586 733h-559v164h783v-164l-584 -733h605v-164h-831z" />
<glyph unicode="{" horiz-adv-x="850" d="M153 542v166q95 0 150.5 51.5t55.5 141.5v313q0 136 98 229t246 93h101v-167h-88q-72 0 -118 -47t-46 -120v-329q0 -198 -187 -248q187 -51 187 -249v-329q0 -73 46 -120t118 -47h88v-167h-101q-148 0 -246 93t-98 229v313q0 90 -55.5 142t-150.5 52z" />
<glyph unicode="|" horiz-adv-x="664" d="M244 -287v1823h177v-1823h-177z" />
<glyph unicode="}" horiz-adv-x="850" d="M47 -120h88q72 0 118 47t46 120v329q0 198 187 249q-187 51 -187 248v329q0 73 -46 120t-118 47h-88v167h100q148 0 246.5 -92.5t98.5 -229.5v-313q0 -90 55.5 -141.5t150.5 -51.5v-166q-95 0 -150.5 -52t-55.5 -142v-313q0 -136 -98 -229t-247 -93h-100v167z" />
<glyph unicode="~" horiz-adv-x="1175" d="M66 559q25 147 100.5 227t195.5 80q139 0 258 -114q38 -37 58 -55.5t53.5 -37t62.5 -18.5q109 0 139 184l176 -44q-25 -147 -100.5 -227t-196.5 -80q-140 0 -257 115q-37 37 -58 55.5t-54 36.5t-62 18q-109 0 -139 -184z" />
<glyph unicode="&#xa1;" horiz-adv-x="632" d="M189 958.5q0 54.5 36.5 90.5t91 36t90.5 -36t36 -90.5t-36 -91t-90.5 -36.5t-91 36.5t-36.5 91zM220 -373v1030h193v-1030h-193z" />
<glyph unicode="&#xa2;" horiz-adv-x="1124" d="M76 530q0 211 137.5 366.5t353.5 183.5v169h135v-166q189 -16 333 -138l-97 -146q-113 99 -236 115v-768q136 19 243 124l110 -136q-145 -140 -353 -157v-165h-135v169q-216 28 -353.5 183t-137.5 366zM265 530.5q0 -139.5 85 -246t217 -133.5v759q-132 -29 -217 -134.5 t-85 -245z" />
<glyph unicode="&#xa3;" horiz-adv-x="1175" d="M144 575v151h138q-4 9 -16 38t-16.5 39.5t-15 37t-14.5 40.5l-11 38.5t-9.5 42.5t-5.5 40.5t-3 44.5q0 173 125.5 292t310.5 119q145 0 253.5 -74.5t152.5 -186.5l-164 -86q-34 83 -95.5 130t-146.5 47q-102 0 -171 -69t-69 -172q0 -47 13.5 -96t43.5 -124t39 -101h385 v-151h-354q10 -55 10 -81q0 -95 -40.5 -179t-108.5 -145h686v-170h-910v166q83 59 130.5 144.5t47.5 183.5q0 33 -12 81h-173z" />
<glyph unicode="&#xa4;" horiz-adv-x="1282" d="M76 222l187 188q-86 112 -86 258t86 258l-187 187l120 120l195 -192q112 69 250 69t250 -69l195 192l120 -120l-187 -187q86 -112 86 -258.5t-86 -257.5l187 -188l-120 -120l-195 192q-112 -69 -250 -69t-250 69l-195 -192zM360 667.5q0 -116.5 81.5 -199t199.5 -82.5 t199.5 82.5t81.5 199t-81.5 199t-199.5 82.5t-199.5 -82.5t-81.5 -199z" />
<glyph unicode="&#xa5;" horiz-adv-x="1316" d="M48 1434h208l402 -658l403 658h208l-427 -703h298v-121h-372l-13 -22v-93h385v-121h-385v-374h-193v374h-385v121h385v93l-14 22h-371v121h298z" />
<glyph unicode="&#xa6;" horiz-adv-x="664" d="M244 -287v819h177v-819h-177zM244 717v819h177v-819h-177z" />
<glyph unicode="&#xa7;" horiz-adv-x="1032" d="M67 616q0 94 56.5 168.5t154.5 111.5q-129 94 -130 241q0 137 108.5 229t270.5 92q139 0 242 -70.5t131 -190.5l-172 -38q-14 65 -69 103t-132 38q-85 0 -141.5 -47t-56.5 -116q0 -50 30.5 -88t81.5 -61l256 -110q130 -56 199.5 -145.5t69.5 -198.5q0 -94 -57 -169 t-155 -112q130 -93 130 -239q0 -137 -108.5 -229t-270.5 -92q-139 0 -242.5 70t-131.5 190l172 39q15 -66 69.5 -104t132.5 -38q85 0 141.5 47t56.5 117q0 97 -113 148l-256 111q-130 56 -198.5 146t-68.5 197zM247 616q0 -61 43 -113t128 -89l160 -70q89 5 148 59t59 131 q0 61 -43.5 114t-128.5 89l-160 69q-88 -5 -147 -58.5t-59 -131.5z" />
<glyph unicode="&#xa8;" horiz-adv-x="851" d="M127 1323q0 48 33.5 82t82.5 34t82 -34t33 -82q0 -49 -33 -82.5t-82 -33.5t-82.5 33.5t-33.5 82.5zM494 1323q0 48 33 82t82 34t82.5 -34t33.5 -82q0 -49 -33.5 -82.5t-82.5 -33.5t-82 33.5t-33 82.5z" />
<glyph unicode="&#xa9;" horiz-adv-x="1640" d="M79 716.5q0 152.5 58 290t157 236.5t236.5 157t290 58t289.5 -58t236.5 -157t157.5 -236.5t58 -290t-58 -289.5t-157.5 -236.5t-236.5 -157.5t-289.5 -58t-290 58t-236.5 157.5t-157 236.5t-58 289.5zM191 717q0 -175 83.5 -321t228.5 -230.5t317 -84.5t317 84.5 t228.5 230.5t83.5 321t-83.5 321t-228.5 230.5t-317 84.5t-317 -84.5t-228.5 -230.5t-83.5 -321zM445 715q0 170 119.5 287t292.5 117q145 0 260 -89l-55 -123q-102 73 -205 73q-110 0 -184.5 -77t-74.5 -188.5t74.5 -188t184.5 -76.5q114 0 211 79l59 -122 q-114 -96 -270 -97q-173 0 -292.5 117t-119.5 288z" />
<glyph unicode="&#xaa;" horiz-adv-x="933" d="M67 1061q0 164 110 276.5t268 112.5q144 0 227 -103v87h166v-746h-166v87q-82 -103 -227 -103q-159 0 -268.5 112.5t-109.5 276.5zM232 1060.5q0 -101.5 68 -170.5t167 -69q68 0 121.5 33.5t83.5 86.5v240q-30 53 -83.5 86t-121.5 33q-99 0 -167 -69t-68 -170.5z" />
<glyph unicode="&#xab;" horiz-adv-x="1301" d="M108 590v98l566 355v-173l-377 -231l377 -231v-174zM609 590v98l567 355v-173l-377 -231l377 -231v-174z" />
<glyph unicode="&#xac;" horiz-adv-x="1175" d="M122 600v161h932v-519h-187v358h-745z" />
<glyph unicode="&#xad;" horiz-adv-x="823" d="M121 592v176h581v-176h-581z" />
<glyph unicode="&#xae;" horiz-adv-x="1640" d="M79 716.5q0 152.5 58 290t157 236.5t236.5 157t290 58t289.5 -58t236.5 -157t157.5 -236.5t58 -290t-58 -289.5t-157.5 -236.5t-236.5 -157.5t-289.5 -58t-290 58t-236.5 157.5t-157 236.5t-58 289.5zM191 717q0 -175 83.5 -321t228.5 -230.5t317 -84.5t317 84.5 t228.5 230.5t83.5 321t-83.5 321t-228.5 230.5t-317 84.5t-317 -84.5t-228.5 -230.5t-83.5 -321zM572 324v783h278q120 0 197 -70.5t77 -179.5q0 -85 -49 -148.5t-131 -86.5l198 -298h-158l-186 282h-82v-282h-144zM716 727h122q65 0 104 34.5t39 89.5q0 54 -39.5 88.5 t-103.5 34.5h-122v-247z" />
<glyph unicode="&#xaf;" horiz-adv-x="851" d="M129 1246v146h594v-146h-594z" />
<glyph unicode="&#xb0;" horiz-adv-x="811" d="M124 1181.5q0 115.5 81.5 194.5t200 79t200 -79t81.5 -194.5t-81.5 -194.5t-200 -79t-200 79t-81.5 194.5zM262 1181.5q0 -60.5 41 -102t102.5 -41.5t102.5 41.5t41 102t-41 102t-102.5 41.5t-102.5 -41.5t-41 -102z" />
<glyph unicode="&#xb1;" horiz-adv-x="1175" d="M122 0v161h932v-161h-932zM122 679v161h373v377h186v-377h373v-161h-373v-377h-186v377h-373z" />
<glyph unicode="&#xb2;" horiz-adv-x="811" d="M79 1227q29 110 111.5 170.5t201.5 60.5q138 0 228.5 -79t90.5 -205q0 -78 -33.5 -146t-107.5 -149l-255 -280h385v-136h-605v121l346 380q55 61 79 109.5t24 100.5q0 65 -42.5 106.5t-109.5 41.5q-123 0 -170 -151z" />
<glyph unicode="&#xb3;" horiz-adv-x="811" d="M56 611l113 97q88 -133 200 -134q81 0 135.5 55t54.5 135q0 79 -54.5 133t-135.5 54q-30 0 -66 -11l-63 79l235 276h-364v139h569v-126l-217 -250q116 -19 189 -104.5t73 -201.5q0 -125 -99 -219.5t-253 -94.5q-101 0 -182.5 46t-134.5 127z" />
<glyph unicode="&#xb4;" horiz-adv-x="851" d="M252 1150l280 345h191l-287 -345h-184z" />
<glyph unicode="&#xb5;" horiz-adv-x="1256" d="M150 -475v1536h186v-724q30 -86 106 -140.5t168 -54.5q89 0 172 60.5t139 149.5v709h186v-1061h-186v157q-59 -79 -146 -130.5t-183 -51.5q-77 0 -145 38t-111 97v-585h-186z" />
<glyph unicode="&#xb6;" horiz-adv-x="1187" d="M89 991.5q0 187.5 131 315t324 127.5h464v-1702h-141v1570h-125v-1570h-140v817h-58q-193 0 -324 127.5t-131 315z" />
<glyph unicode="&#xb7;" horiz-adv-x="608" d="M176 668.5q0 54.5 37 91.5t91 37t91 -37t37 -91.5t-37 -91t-91 -36.5t-91 36.5t-37 91z" />
<glyph unicode="&#xb8;" horiz-adv-x="851" d="M199 -473l63 92q45 -37 111 -37q53 0 87.5 29.5t34.5 72.5q0 44 -34.5 73t-87.5 29q-30 0 -58 -5l-33 39l98 180h145l-74 -118q86 -16 137.5 -72.5t51.5 -128.5q0 -91 -74 -152t-184 -61q-109 0 -183 59z" />
<glyph unicode="&#xb9;" horiz-adv-x="811" d="M143 1293l261 141h142v-971h-166v802l-172 -94z" />
<glyph unicode="&#xba;" horiz-adv-x="933" d="M66 1061q0 163 116.5 276t284.5 113t284.5 -113t116.5 -276t-116.5 -276t-284.5 -113t-284.5 113t-116.5 276zM231 1060.5q0 -102.5 68 -171t168 -68.5t167.5 68.5t67.5 171t-67.5 171t-167.5 68.5t-168 -68.5t-68 -171z" />
<glyph unicode="&#xbb;" horiz-adv-x="1301" d="M126 234v174l377 231l-377 231v173l566 -355v-98zM628 234v174l377 231l-377 231v173l566 -355v-98z" />
<glyph unicode="&#xbc;" horiz-adv-x="1956" d="M143 1293l261 141h142v-971h-166v802l-172 -94zM547 0l700 1434h163l-700 -1434h-163zM1186 191v130l443 650h158v-637h111v-143h-111v-191h-166v191h-435zM1369 333h252v377z" />
<glyph unicode="&#xbd;" horiz-adv-x="1956" d="M143 1293l261 141h142v-971h-166v802l-172 -94zM547 0l700 1434h163l-700 -1434h-163zM1225 764q29 110 111.5 170.5t201.5 60.5q138 0 228.5 -78.5t90.5 -205.5q0 -78 -33.5 -146t-107.5 -149l-255 -280h385v-136h-605v121l346 380q55 61 79 109.5t24 100.5 q0 65 -42.5 106.5t-109.5 41.5q-123 0 -170 -150z" />
<glyph unicode="&#xbe;" horiz-adv-x="1956" d="M56 611l113 97q88 -133 200 -134q81 0 135.5 55t54.5 135q0 79 -54.5 133t-135.5 54q-30 0 -66 -11l-63 79l235 276h-364v139h569v-126l-217 -250q116 -19 189 -104.5t73 -201.5q0 -125 -99 -219.5t-253 -94.5q-101 0 -182.5 46t-134.5 127zM547 0l700 1434h163 l-700 -1434h-163zM1186 191v130l443 650h158v-637h111v-143h-111v-191h-166v191h-435zM1369 333h252v377z" />
<glyph unicode="&#xbf;" horiz-adv-x="1119" d="M127 10q0 151 111.5 262.5t298.5 139.5v240h192v-362q-187 0 -296.5 -79t-109.5 -202q0 -101 87.5 -168.5t224.5 -67.5q157 0 300 126l101 -140q-184 -157 -423 -156q-141 0 -253.5 57t-172.5 150t-60 200zM504 958.5q0 54.5 36.5 90.5t90.5 36t90.5 -36t36.5 -90.5 t-36.5 -91t-90.5 -36.5t-90.5 36.5t-36.5 91z" />
<glyph unicode="&#xc0;" horiz-adv-x="1394" d="M49 0l541 1434h215l541 -1434h-210l-134 370h-610l-133 -370h-210zM380 1891h190l281 -345h-184zM450 537h495l-248 684z" />
<glyph unicode="&#xc1;" horiz-adv-x="1394" d="M49 0l541 1434h215l541 -1434h-210l-134 370h-610l-133 -370h-210zM450 537h495l-248 684zM540 1546l280 345h191l-287 -345h-184z" />
<glyph unicode="&#xc2;" horiz-adv-x="1394" d="M49 0l541 1434h215l541 -1434h-210l-134 370h-610l-133 -370h-210zM334 1546l299 345h129l299 -345h-184l-180 204l-179 -204h-184zM450 537h495l-248 684z" />
<glyph unicode="&#xc3;" horiz-adv-x="1394" d="M49 0l541 1434h215l541 -1434h-210l-134 370h-610l-133 -370h-210zM350 1608q45 218 193 218q79 0 159 -60q6 -4 23 -16.5t25.5 -18t21 -13.5t24 -11t21.5 -3q27 0 43.5 25t27.5 78l156 -30q-45 -218 -192 -218q-79 0 -160 59q-6 4 -23 17t-25 18t-21 13t-24 11t-21 3 q-27 0 -43.5 -25t-27.5 -78zM450 537h495l-248 684z" />
<glyph unicode="&#xc4;" horiz-adv-x="1394" d="M49 0l541 1434h215l541 -1434h-210l-134 370h-610l-133 -370h-210zM398 1704q0 48 33.5 82t82.5 34t82.5 -34t33.5 -82q0 -49 -33.5 -82.5t-82.5 -33.5t-82.5 33.5t-33.5 82.5zM450 537h495l-248 684zM765 1704q0 48 33 82t82.5 34t82.5 -34t33 -82q0 -49 -33 -82.5 t-82.5 -33.5t-82.5 33.5t-33 82.5z" />
<glyph unicode="&#xc5;" horiz-adv-x="1394" d="M49 0l541 1434h215l541 -1434h-210l-134 370h-610l-133 -370h-210zM450 537h495l-248 684zM482 1726q0 85 61.5 142.5t154 57.5t153.5 -57.5t61 -142.5t-61 -142t-153.5 -57t-154 57t-61.5 142zM604 1726.5q0 -38.5 26.5 -65t66.5 -26.5t67 26.5t27 65t-27 65t-67 26.5 t-66.5 -26.5t-26.5 -65z" />
<glyph unicode="&#xc6;" horiz-adv-x="1890" d="M18 0l824 1434h911v-167h-636v-463h585v-167h-585v-470h655v-167h-847v370h-479l-208 -370h-220zM540 537h385v681z" />
<glyph unicode="&#xc7;" horiz-adv-x="1400" d="M83 717q0 155 58.5 292t158.5 235.5t240 156t297 57.5q266 0 473 -159l-98 -145q-93 65 -182 99.5t-193 34.5q-233 0 -395.5 -166t-162.5 -405.5t162 -405.5t396 -166q211 0 388 146l102 -145q-177 -145 -415 -166l-61 -98q86 -16 137.5 -72.5t51.5 -128.5 q0 -91 -74 -152t-184 -61q-109 0 -183 59l64 92q45 -37 110 -37q53 0 87.5 29.5t34.5 72.5q0 44 -34.5 73t-87.5 29q-30 0 -57 -5l-34 39l86 158q-194 16 -350.5 117t-245.5 264t-89 358z" />
<glyph unicode="&#xc8;" horiz-adv-x="1156" d="M172 0v1434h847v-167h-654v-463h602v-167h-602v-470h672v-167h-865zM263 1891h191l280 -345h-184z" />
<glyph unicode="&#xc9;" horiz-adv-x="1156" d="M172 0v1434h847v-167h-654v-463h602v-167h-602v-470h672v-167h-865zM461 1546l280 345h191l-287 -345h-184z" />
<glyph unicode="&#xca;" horiz-adv-x="1156" d="M172 0v1434h847v-167h-654v-463h602v-167h-602v-470h672v-167h-865zM232 1546l299 345h129l299 -345h-184l-179 204l-179 -204h-185z" />
<glyph unicode="&#xcb;" horiz-adv-x="1156" d="M172 0v1434h847v-167h-654v-463h602v-167h-602v-470h672v-167h-865zM295 1704q0 48 33 82t82.5 34t82.5 -34t33 -82q0 -49 -33 -82.5t-82.5 -33.5t-82.5 33.5t-33 82.5zM662 1704q0 48 33 82t82 34t82.5 -34t33.5 -82q0 -49 -33.5 -82.5t-82.5 -33.5t-82 33.5t-33 82.5z " />
<glyph unicode="&#xcc;" horiz-adv-x="583" d="M-27 1891h191l280 -345h-184zM196 0v1434h192v-1434h-192z" />
<glyph unicode="&#xcd;" horiz-adv-x="583" d="M139 1546l281 345h190l-286 -345h-185zM196 0v1434h192v-1434h-192z" />
<glyph unicode="&#xce;" horiz-adv-x="583" d="M-72 1546l299 345h129l299 -345h-184l-179 204l-179 -204h-185zM196 0v1434h192v-1434h-192z" />
<glyph unicode="&#xcf;" horiz-adv-x="583" d="M-7 1704q0 48 33 82t82.5 34t82.5 -34t33 -82q0 -49 -33 -82.5t-82.5 -33.5t-82.5 33.5t-33 82.5zM196 0v1434h192v-1434h-192zM359 1704q0 48 33.5 82t82.5 34t82.5 -34t33.5 -82q0 -49 -33.5 -82.5t-82.5 -33.5t-82.5 33.5t-33.5 82.5z" />
<glyph unicode="&#xd0;" horiz-adv-x="1486" d="M25 644v146h187v644h486q324 0 515 -194t191 -523t-191 -523t-515 -194h-486v644h-187zM404 170h294q232 0 371 142t139 405t-139 405t-371 142h-294v-474h315v-146h-315v-474z" />
<glyph unicode="&#xd1;" horiz-adv-x="1432" d="M172 0v1434h185l717 -1100v1100h187v-1434h-186l-717 1100v-1100h-186zM369 1608q45 218 192 218q79 0 160 -60q6 -4 23 -16.5t25 -18t21 -13.5t24 -11t22 -3q27 0 43 25t27 78l157 -30q-45 -218 -193 -218q-78 0 -159 59q-6 4 -23 17t-25.5 18t-21 13t-24 11t-21.5 3 q-27 0 -43 -25t-28 -78z" />
<glyph unicode="&#xd2;" horiz-adv-x="1673" d="M83 716.5q0 154.5 58.5 292t158.5 236t240 156t296.5 57.5t296.5 -57.5t240.5 -156t158.5 -236t58 -292t-58 -291.5t-158.5 -236t-240.5 -156.5t-296.5 -57.5t-296.5 57.5t-240 156.5t-158.5 236t-58.5 291.5zM279 716.5q0 -239.5 162 -405.5t395.5 -166t396 166 t162.5 405.5t-162.5 405.5t-396 166t-395.5 -166t-162 -405.5zM514 1891h191l280 -345h-184z" />
<glyph unicode="&#xd3;" horiz-adv-x="1673" d="M83 716.5q0 154.5 58.5 292t158.5 236t240 156t296.5 57.5t296.5 -57.5t240.5 -156t158.5 -236t58 -292t-58 -291.5t-158.5 -236t-240.5 -156.5t-296.5 -57.5t-296.5 57.5t-240 156.5t-158.5 236t-58.5 291.5zM279 716.5q0 -239.5 162 -405.5t395.5 -166t396 166 t162.5 405.5t-162.5 405.5t-396 166t-395.5 -166t-162 -405.5zM689 1546l281 345h190l-287 -345h-184z" />
<glyph unicode="&#xd4;" horiz-adv-x="1673" d="M83 716.5q0 154.5 58.5 292t158.5 236t240 156t296.5 57.5t296.5 -57.5t240.5 -156t158.5 -236t58 -292t-58 -291.5t-158.5 -236t-240.5 -156.5t-296.5 -57.5t-296.5 57.5t-240 156.5t-158.5 236t-58.5 291.5zM279 716.5q0 -239.5 162 -405.5t395.5 -166t396 166 t162.5 405.5t-162.5 405.5t-396 166t-395.5 -166t-162 -405.5zM473 1546l299 345h129l299 -345h-184l-179 204l-180 -204h-184z" />
<glyph unicode="&#xd5;" horiz-adv-x="1673" d="M83 716.5q0 154.5 58.5 292t158.5 236t240 156t296.5 57.5t296.5 -57.5t240.5 -156t158.5 -236t58 -292t-58 -291.5t-158.5 -236t-240.5 -156.5t-296.5 -57.5t-296.5 57.5t-240 156.5t-158.5 236t-58.5 291.5zM279 716.5q0 -239.5 162 -405.5t395.5 -166t396 166 t162.5 405.5t-162.5 405.5t-396 166t-395.5 -166t-162 -405.5zM489 1608q45 218 193 218q79 0 160 -60q6 -4 23 -16.5t25 -18t21 -13.5t24 -11t21 -3q27 0 43.5 25t27.5 78l157 -30q-45 -218 -193 -218q-79 0 -160 59q-6 4 -22.5 17t-25 18t-21 13t-24 11t-21.5 3 q-27 0 -43.5 -25t-27.5 -78z" />
<glyph unicode="&#xd6;" horiz-adv-x="1673" d="M83 716.5q0 154.5 58.5 292t158.5 236t240 156t296.5 57.5t296.5 -57.5t240.5 -156t158.5 -236t58 -292t-58 -291.5t-158.5 -236t-240.5 -156.5t-296.5 -57.5t-296.5 57.5t-240 156.5t-158.5 236t-58.5 291.5zM279 716.5q0 -239.5 162 -405.5t395.5 -166t396 166 t162.5 405.5t-162.5 405.5t-396 166t-395.5 -166t-162 -405.5zM538 1704q0 48 33 82t82 34t82.5 -34t33.5 -82q0 -49 -33.5 -82.5t-82.5 -33.5t-82 33.5t-33 82.5zM904 1704q0 48 33.5 82t82.5 34t82.5 -34t33.5 -82q0 -49 -33.5 -82.5t-82.5 -33.5t-82.5 33.5t-33.5 82.5z " />
<glyph unicode="&#xd7;" horiz-adv-x="1175" d="M151 361l311 315l-311 314l125 126l312 -314l311 314l126 -126l-312 -314l312 -315l-126 -125l-311 313l-312 -313z" />
<glyph unicode="&#xd8;" horiz-adv-x="1673" d="M83 717q0 155 58.5 292t158.5 235.5t240 156t297 57.5q218 0 396 -107l114 144h176l-177 -225q116 -103 180 -246t64 -307q0 -155 -58 -292t-158.5 -236t-240.5 -156.5t-296 -57.5q-230 0 -417 119l-122 -155h-176l189 240q-109 101 -168.5 240t-59.5 298zM279 717 q0 -229 147 -391l696 883q-132 79 -285 79q-233 0 -395.5 -165.5t-162.5 -405.5zM531 236q138 -91 306 -91q233 0 395.5 166t162.5 406q0 119 -43 224t-121 183z" />
<glyph unicode="&#xd9;" horiz-adv-x="1357" d="M159 501v933h192v-955q0 -147 93.5 -239.5t234.5 -92.5t234.5 92.5t93.5 239.5v955h192v-933q0 -156 -69 -276t-187 -184t-264.5 -64t-264 64t-186.5 184t-69 276zM348 1891h191l280 -345h-184z" />
<glyph unicode="&#xda;" horiz-adv-x="1357" d="M159 501v933h192v-955q0 -147 93.5 -239.5t234.5 -92.5t234.5 92.5t93.5 239.5v955h192v-933q0 -156 -69 -276t-187 -184t-264.5 -64t-264 64t-186.5 184t-69 276zM542 1546l280 345h191l-287 -345h-184z" />
<glyph unicode="&#xdb;" horiz-adv-x="1357" d="M159 501v933h192v-955q0 -147 93.5 -239.5t234.5 -92.5t234.5 92.5t93.5 239.5v955h192v-933q0 -156 -69 -276t-187 -184t-264.5 -64t-264 64t-186.5 184t-69 276zM315 1546l299 345h129l299 -345h-184l-179 204l-179 -204h-185z" />
<glyph unicode="&#xdc;" horiz-adv-x="1357" d="M159 501v933h192v-955q0 -147 93.5 -239.5t234.5 -92.5t234.5 92.5t93.5 239.5v955h192v-933q0 -156 -69 -276t-187 -184t-264.5 -64t-264 64t-186.5 184t-69 276zM380 1704q0 48 33 82t82.5 34t82.5 -34t33 -82q0 -49 -33 -82.5t-82.5 -33.5t-82.5 33.5t-33 82.5z M746 1704q0 48 33.5 82t82.5 34t82.5 -34t33.5 -82q0 -49 -33.5 -82.5t-82.5 -33.5t-82.5 33.5t-33.5 82.5z" />
<glyph unicode="&#xdd;" horiz-adv-x="1316" d="M48 1434h208l402 -658l403 658h208l-514 -846v-588h-193v588zM524 1546l281 345h190l-286 -345h-185z" />
<glyph unicode="&#xde;" horiz-adv-x="1198" d="M172 0v1434h193v-271h265q227 0 359.5 -121t132.5 -325t-132.5 -325.5t-359.5 -121.5h-265v-270h-193zM365 437h258q143 0 223.5 75.5t80.5 204.5t-80.5 204t-223.5 75h-258v-559z" />
<glyph unicode="&#xdf;" horiz-adv-x="1244" d="M159 0v1051q0 181 119 294t301 113q176 0 296.5 -107.5t120.5 -259.5q0 -106 -66 -191t-175 -123q173 -26 285.5 -135.5t112.5 -260.5q0 -172 -135 -289t-337 -117q-136 0 -242 60l48 169q87 -61 194 -62q117 0 196.5 69.5t79.5 169.5q0 130 -118 215t-319 89v161 q122 8 201.5 73t79.5 163q0 86 -64.5 147.5t-157.5 61.5q-98 0 -163 -65.5t-65 -166.5v-1059h-192z" />
<glyph unicode="&#xe0;" d="M76 530.5q0 149.5 69 276t194 202.5t279 76q226 0 374 -161v137h187v-1061h-187v137q-146 -162 -374 -162q-154 0 -279 76.5t-194 203t-69 276zM265 530.5q0 -161.5 111 -275t273 -113.5q112 0 203.5 57.5t139.5 152.5v354q-48 96 -139.5 154.5t-203.5 58.5 q-162 0 -273 -113.5t-111 -275zM321 1560h190l281 -346h-185z" />
<glyph unicode="&#xe1;" d="M76 530.5q0 149.5 69 276t194 202.5t279 76q226 0 374 -161v137h187v-1061h-187v137q-146 -162 -374 -162q-154 0 -279 76.5t-194 203t-69 276zM265 530.5q0 -161.5 111 -275t273 -113.5q112 0 203.5 57.5t139.5 152.5v354q-48 96 -139.5 154.5t-203.5 58.5 q-162 0 -273 -113.5t-111 -275zM470 1214l281 346h190l-287 -346h-184z" />
<glyph unicode="&#xe2;" d="M76 530.5q0 149.5 69 276t194 202.5t279 76q226 0 374 -161v137h187v-1061h-187v137q-146 -162 -374 -162q-154 0 -279 76.5t-194 203t-69 276zM265 530.5q0 -161.5 111 -275t273 -113.5q112 0 203.5 57.5t139.5 152.5v354q-48 96 -139.5 154.5t-203.5 58.5 q-162 0 -273 -113.5t-111 -275zM283 1214l299 346h129l299 -346h-185l-179 204l-179 -204h-184z" />
<glyph unicode="&#xe3;" d="M76 530.5q0 149.5 69 276t194 202.5t279 76q226 0 374 -161v137h187v-1061h-187v137q-146 -162 -374 -162q-154 0 -279 76.5t-194 203t-69 276zM265 530.5q0 -161.5 111 -275t273 -113.5q112 0 203.5 57.5t139.5 152.5v354q-48 96 -139.5 154.5t-203.5 58.5 q-162 0 -273 -113.5t-111 -275zM286 1276q44 218 192 218q79 0 160 -59q6 -4 23 -17t25 -18t21 -13.5t24 -11.5t22 -3q27 0 43 25t27 79l157 -31q-44 -218 -193 -218q-78 0 -159 59q-6 4 -23 17t-25.5 18t-21 13t-24 11.5t-21.5 3.5q-27 0 -43 -25.5t-28 -78.5z" />
<glyph unicode="&#xe4;" d="M76 530.5q0 149.5 69 276t194 202.5t279 76q226 0 374 -161v137h187v-1061h-187v137q-146 -162 -374 -162q-154 0 -279 76.5t-194 203t-69 276zM265 530.5q0 -161.5 111 -275t273 -113.5q112 0 203.5 57.5t139.5 152.5v354q-48 96 -139.5 154.5t-203.5 58.5 q-162 0 -273 -113.5t-111 -275zM332 1372q0 48 33 82t82.5 34t82.5 -34t33 -82q0 -49 -33 -82.5t-82.5 -33.5t-82.5 33.5t-33 82.5zM698 1372q0 48 33.5 82t82.5 34t82.5 -34t33.5 -82q0 -49 -33.5 -82.5t-82.5 -33.5t-82.5 33.5t-33.5 82.5z" />
<glyph unicode="&#xe5;" d="M76 530.5q0 149.5 69 276t194 202.5t279 76q226 0 374 -161v137h187v-1061h-187v137q-146 -162 -374 -162q-154 0 -279 76.5t-194 203t-69 276zM265 530.5q0 -161.5 111 -275t273 -113.5q112 0 203.5 57.5t139.5 152.5v354q-48 96 -139.5 154.5t-203.5 58.5 q-162 0 -273 -113.5t-111 -275zM416 1395q0 85 61.5 142t153.5 57t153.5 -57t61.5 -142t-61.5 -142.5t-153.5 -57.5t-153.5 57.5t-61.5 142.5zM538 1395q0 -39 26.5 -65t66.5 -26t66.5 26t26.5 65t-26.5 65t-66.5 26t-66.5 -26t-26.5 -65z" />
<glyph unicode="&#xe6;" horiz-adv-x="2072" d="M76 324q0 141 138.5 237t337.5 96q98 0 196.5 -27.5t163.5 -70.5q-1 8 -1 26q0 1 3 41q-7 133 -104.5 216t-241.5 83q-94 0 -183.5 -35.5t-159.5 -94.5l-71 143q183 147 419 147q145 0 264 -63.5t179 -174.5q69 109 186.5 173.5t258.5 64.5q154 0 277.5 -71.5t191 -193 t67.5 -266.5q0 -46 -8 -82h-893q15 -144 120.5 -240t256.5 -96q93 0 178 40.5t150 113.5l128 -119q-83 -95 -199 -145.5t-253 -50.5q-147 0 -267.5 62.5t-191.5 167.5q-70 -106 -187 -168t-258 -62q-213 0 -355 100.5t-142 248.5zM262 323.5q0 -78.5 92 -133t229 -54.5 q115 0 204 49t137 134q-9 55 -11 97q-59 46 -146.5 71t-182.5 25q-138 0 -230 -55t-92 -133.5zM1103 627h699q-23 130 -116.5 214t-224.5 84q-129 0 -230 -85t-128 -213z" />
<glyph unicode="&#xe7;" horiz-adv-x="1124" d="M76 530q0 152 73.5 279t205.5 201.5t294 74.5q222 0 386 -140l-97 -146q-135 120 -289 120q-162 0 -273 -113.5t-111 -275t111 -275t273 -113.5q166 0 296 128l110 -136q-138 -133 -337 -154l-62 -98q86 -16 138 -72.5t52 -128.5q0 -91 -74.5 -152t-183.5 -61t-184 59 l64 92q45 -37 111 -37q53 0 87 29.5t34 72.5q0 44 -34 73t-87 29q-30 0 -58 -5l-34 39l87 160q-218 26 -358 181.5t-140 368.5z" />
<glyph unicode="&#xe8;" horiz-adv-x="1253" d="M76 530q0 114 42.5 216.5t116.5 177t178.5 118t223.5 43.5q155 0 279 -71.5t193 -193t69 -266.5q0 -41 -10 -82h-902q15 -144 122.5 -240t258.5 -96q195 0 335 154l128 -119q-84 -95 -201.5 -145.5t-256.5 -50.5q-127 0 -235.5 43.5t-182.5 118.5t-116 177t-42 216z M273 627h709q-22 130 -117 214t-228 84q-131 0 -233.5 -85t-130.5 -213zM318 1560h191l281 -346h-185z" />
<glyph unicode="&#xe9;" horiz-adv-x="1253" d="M76 530q0 114 42.5 216.5t116.5 177t178.5 118t223.5 43.5q155 0 279 -71.5t193 -193t69 -266.5q0 -41 -10 -82h-902q15 -144 122.5 -240t258.5 -96q195 0 335 154l128 -119q-84 -95 -201.5 -145.5t-256.5 -50.5q-127 0 -235.5 43.5t-182.5 118.5t-116 177t-42 216z M273 627h709q-22 130 -117 214t-228 84q-131 0 -233.5 -85t-130.5 -213zM465 1214l280 346h191l-287 -346h-184z" />
<glyph unicode="&#xea;" horiz-adv-x="1253" d="M76 530q0 114 42.5 216.5t116.5 177t178.5 118t223.5 43.5q155 0 279 -71.5t193 -193t69 -266.5q0 -41 -10 -82h-902q15 -144 122.5 -240t258.5 -96q195 0 335 154l128 -119q-84 -95 -201.5 -145.5t-256.5 -50.5q-127 0 -235.5 43.5t-182.5 118.5t-116 177t-42 216z M263 1214l299 346h129l299 -346h-184l-179 204l-180 -204h-184zM273 627h709q-22 130 -117 214t-228 84q-131 0 -233.5 -85t-130.5 -213z" />
<glyph unicode="&#xeb;" horiz-adv-x="1253" d="M76 530q0 114 42.5 216.5t116.5 177t178.5 118t223.5 43.5q155 0 279 -71.5t193 -193t69 -266.5q0 -41 -10 -82h-902q15 -144 122.5 -240t258.5 -96q195 0 335 154l128 -119q-84 -95 -201.5 -145.5t-256.5 -50.5q-127 0 -235.5 43.5t-182.5 118.5t-116 177t-42 216z M273 627h709q-22 130 -117 214t-228 84q-131 0 -233.5 -85t-130.5 -213zM328 1372q0 48 33 82t82.5 34t82.5 -34t33 -82q0 -49 -33 -82.5t-82.5 -33.5t-82.5 33.5t-33 82.5zM694 1372q0 48 33.5 82t82.5 34t82.5 -34t33.5 -82q0 -49 -33.5 -82.5t-82.5 -33.5t-82.5 33.5 t-33.5 82.5z" />
<glyph unicode="&#xec;" horiz-adv-x="534" d="M-61 1560h190l281 -346h-185zM174 0v1061h186v-1061h-186z" />
<glyph unicode="&#xed;" horiz-adv-x="534" d="M125 1214l281 346h190l-287 -346h-184zM174 0v1061h186v-1061h-186z" />
<glyph unicode="&#xee;" horiz-adv-x="534" d="M-96 1214l299 346h129l299 -346h-185l-179 204l-179 -204h-184zM174 0v1061h186v-1061h-186z" />
<glyph unicode="&#xef;" horiz-adv-x="534" d="M-32 1372q0 48 33.5 82t82.5 34t82.5 -34t33.5 -82q0 -49 -33.5 -82.5t-82.5 -33.5t-82.5 33.5t-33.5 82.5zM174 0v1061h186v-1061h-186zM335 1372q0 48 33 82t82.5 34t82.5 -34t33 -82q0 -49 -33 -82.5t-82.5 -33.5t-82.5 33.5t-33 82.5z" />
<glyph unicode="&#xf0;" horiz-adv-x="1258" d="M75 494q0 140 72.5 258t193 186t258.5 68q182 0 309 -134q-97 196 -278 337l-317 -148l-53 115l251 117q-92 59 -208 111l148 91q120 -51 227 -125l232 110l53 -114l-175 -82q180 -157 282 -362.5t102 -427.5q0 -143 -72.5 -262t-198.5 -188t-277.5 -69t-277.5 69 t-198.5 187.5t-72.5 262.5zM264 496.5q0 -149.5 105 -252t256.5 -102.5t256 103t104.5 251.5t-104.5 251.5t-256 103t-256.5 -102.5t-105 -252z" />
<glyph unicode="&#xf1;" horiz-adv-x="1235" d="M150 0v1061h186v-163q62 82 150.5 134.5t193.5 52.5q188 0 307.5 -120.5t119.5 -312.5v-652h-186v642q0 120 -77.5 198.5t-198.5 78.5q-92 0 -173.5 -62.5t-135.5 -153.5v-703h-186zM281 1276q45 218 192 218q79 0 160 -59q6 -4 23 -17t25 -18t21 -13.5t24 -11.5t22 -3 q27 0 43 25t27 79l157 -31q-45 -218 -193 -218q-78 0 -159 59q-6 4 -23 17t-25.5 18t-21 13t-24 11.5t-21.5 3.5q-27 0 -43 -25.5t-28 -78.5z" />
<glyph unicode="&#xf2;" horiz-adv-x="1298" d="M76 530.5q0 151.5 73.5 278.5t205.5 201.5t294 74.5t294 -74.5t206 -201.5t74 -278.5t-74 -278.5t-206 -202t-294 -75t-294 75t-205.5 202t-73.5 278.5zM265 530.5q0 -161.5 111 -275t273 -113.5t273 113.5t111 275t-111 275t-273 113.5t-273 -113.5t-111 -275zM328 1560 h190l281 -346h-185z" />
<glyph unicode="&#xf3;" horiz-adv-x="1298" d="M76 530.5q0 151.5 73.5 278.5t205.5 201.5t294 74.5t294 -74.5t206 -201.5t74 -278.5t-74 -278.5t-206 -202t-294 -75t-294 75t-205.5 202t-73.5 278.5zM265 530.5q0 -161.5 111 -275t273 -113.5t273 113.5t111 275t-111 275t-273 113.5t-273 -113.5t-111 -275zM502 1214 l280 346h191l-287 -346h-184z" />
<glyph unicode="&#xf4;" horiz-adv-x="1298" d="M76 530.5q0 151.5 73.5 278.5t205.5 201.5t294 74.5t294 -74.5t206 -201.5t74 -278.5t-74 -278.5t-206 -202t-294 -75t-294 75t-205.5 202t-73.5 278.5zM265 530.5q0 -161.5 111 -275t273 -113.5t273 113.5t111 275t-111 275t-273 113.5t-273 -113.5t-111 -275zM286 1214 l299 346h129l299 -346h-185l-179 204l-179 -204h-184z" />
<glyph unicode="&#xf5;" horiz-adv-x="1298" d="M76 530.5q0 151.5 73.5 278.5t205.5 201.5t294 74.5t294 -74.5t206 -201.5t74 -278.5t-74 -278.5t-206 -202t-294 -75t-294 75t-205.5 202t-73.5 278.5zM265 530.5q0 -161.5 111 -275t273 -113.5t273 113.5t111 275t-111 275t-273 113.5t-273 -113.5t-111 -275zM302 1276 q44 218 193 218q79 0 159 -59q6 -4 23 -17t25.5 -18t21 -13.5t24 -11.5t21.5 -3q27 0 43 25t28 79l156 -31q-44 -218 -192 -218q-79 0 -160 59q-6 4 -23 17t-25 18t-21 13t-24 11.5t-22 3.5q-27 0 -43 -25.5t-27 -78.5z" />
<glyph unicode="&#xf6;" horiz-adv-x="1298" d="M76 530.5q0 151.5 73.5 278.5t205.5 201.5t294 74.5t294 -74.5t206 -201.5t74 -278.5t-74 -278.5t-206 -202t-294 -75t-294 75t-205.5 202t-73.5 278.5zM265 530.5q0 -161.5 111 -275t273 -113.5t273 113.5t111 275t-111 275t-273 113.5t-273 -113.5t-111 -275zM350 1372 q0 48 33.5 82t82.5 34t82.5 -34t33.5 -82q0 -49 -33.5 -82.5t-82.5 -33.5t-82.5 33.5t-33.5 82.5zM717 1372q0 48 33 82t82.5 34t82.5 -34t33 -82q0 -49 -33 -82.5t-82.5 -33.5t-82.5 33.5t-33 82.5z" />
<glyph unicode="&#xf7;" horiz-adv-x="1175" d="M122 600v161h932v-161h-932zM460 294q0 54 37 91t91 37t91 -37t37 -91t-37 -91t-91 -37t-91 37t-37 91zM460 1067q0 54 37 91t91 37t91 -37t37 -91t-37 -91t-91 -37t-91 37t-37 91z" />
<glyph unicode="&#xf8;" horiz-adv-x="1298" d="M76 530q0 152 73.5 279t205.5 201.5t294 74.5q161 0 295 -75l90 112h168l-151 -191q82 -76 127 -180t45 -221q0 -152 -74 -278.5t-206 -201.5t-294 -75q-164 0 -297 77l-90 -113h-168l153 191q-82 77 -126.5 180.5t-44.5 219.5zM265 530q0 -148 94 -257l476 598 q-86 47 -186 48q-162 0 -273 -113.5t-111 -275.5zM462 190q85 -48 187 -48q162 0 273 113.5t111 274.5q0 148 -96 258z" />
<glyph unicode="&#xf9;" horiz-adv-x="1235" d="M129 409v652h186v-642q0 -120 77.5 -198.5t198.5 -78.5q93 0 174 62t135 153v704h186v-1061h-186v163q-62 -82 -151 -135t-193 -53q-188 0 -307.5 121t-119.5 313zM267 1560h191l280 -346h-184z" />
<glyph unicode="&#xfa;" horiz-adv-x="1235" d="M129 409v652h186v-642q0 -120 77.5 -198.5t198.5 -78.5q93 0 174 62t135 153v704h186v-1061h-186v163q-62 -82 -151 -135t-193 -53q-188 0 -307.5 121t-119.5 313zM465 1214l280 346h191l-287 -346h-184z" />
<glyph unicode="&#xfb;" horiz-adv-x="1235" d="M129 409v652h186v-642q0 -120 77.5 -198.5t198.5 -78.5q93 0 174 62t135 153v704h186v-1061h-186v163q-62 -82 -151 -135t-193 -53q-188 0 -307.5 121t-119.5 313zM244 1214l299 346h129l299 -346h-185l-179 204l-179 -204h-184z" />
<glyph unicode="&#xfc;" horiz-adv-x="1235" d="M129 409v652h186v-642q0 -120 77.5 -198.5t198.5 -78.5q93 0 174 62t135 153v704h186v-1061h-186v163q-62 -82 -151 -135t-193 -53q-188 0 -307.5 121t-119.5 313zM308 1372q0 48 33.5 82t82.5 34t82.5 -34t33.5 -82q0 -49 -33.5 -82.5t-82.5 -33.5t-82.5 33.5 t-33.5 82.5zM675 1372q0 48 33 82t82.5 34t82.5 -34t33 -82q0 -49 -33 -82.5t-82.5 -33.5t-82.5 33.5t-33 82.5z" />
<glyph unicode="&#xfd;" horiz-adv-x="1075" d="M28 1061h194l316 -820l315 820h195l-599 -1536h-195l188 479zM393 1214l281 346h190l-286 -346h-185z" />
<glyph unicode="&#xfe;" d="M150 -475v1970h186v-571q148 161 374 161q154 0 279 -76t194 -202.5t69 -276t-69 -276t-194.5 -203t-278.5 -76.5q-227 0 -374 162v-612h-186zM336 352q48 -95 139.5 -152.5t203.5 -57.5q162 0 273 113.5t111 275t-111 275t-273 113.5q-112 0 -203.5 -58.5t-139.5 -154.5 v-354z" />
<glyph unicode="&#xff;" horiz-adv-x="1075" d="M28 1061h194l316 -820l315 820h195l-599 -1536h-195l188 479zM239 1372q0 48 33 82t82 34t82.5 -34t33.5 -82q0 -49 -33.5 -82.5t-82.5 -33.5t-82 33.5t-33 82.5zM605 1372q0 48 33.5 82t82.5 34t82.5 -34t33.5 -82q0 -49 -33.5 -82.5t-82.5 -33.5t-82.5 33.5t-33.5 82.5 z" />
<glyph unicode="&#x152;" horiz-adv-x="1839" d="M83 717q0 199 103 363.5t280 259t390 94.5h846v-167h-637v-463h585v-167h-585v-470h655v-167h-864q-159 0 -302 55.5t-246.5 150.5t-164 228t-60.5 283zM279 716.5q0 -152.5 76 -278t208.5 -197t292.5 -71.5h16v1094h-16q-160 0 -292.5 -72t-208.5 -197.5t-76 -278z" />
<glyph unicode="&#x153;" horiz-adv-x="2185" d="M76 530.5q0 152.5 73 280t203 201t289 73.5q151 0 276 -74.5t194 -198.5q67 122 190.5 197.5t272.5 75.5q154 0 277 -71.5t190.5 -193t67.5 -266.5q0 -46 -8 -82h-894q16 -143 122.5 -239.5t255.5 -96.5q93 0 178 40.5t151 113.5l128 -119q-83 -95 -199.5 -145.5 t-253.5 -50.5q-158 0 -286 75t-193 196q-69 -123 -193.5 -197t-275.5 -74q-159 0 -289 74t-203 201.5t-73 280zM265 530q0 -164 108.5 -276t267.5 -112t267.5 112.5t108.5 275.5t-109 276t-267 113t-267 -113t-109 -276zM1215 627h699q-23 130 -116 214t-224 84 q-129 0 -230.5 -85t-128.5 -213z" />
<glyph unicode="&#x178;" horiz-adv-x="1316" d="M48 1434h208l402 -658l403 658h208l-514 -846v-588h-193v588zM359 1704q0 48 33.5 82t82.5 34t82.5 -34t33.5 -82q0 -49 -33.5 -82.5t-82.5 -33.5t-82.5 33.5t-33.5 82.5zM726 1704q0 48 33.5 82t82.5 34t82 -34t33 -82q0 -49 -33 -82.5t-82 -33.5t-82.5 33.5t-33.5 82.5 z" />
<glyph unicode="&#x2c6;" horiz-adv-x="851" d="M62 1147l299 345h129l300 -345h-185l-179 204l-179 -204h-185z" />
<glyph unicode="&#x2dc;" horiz-adv-x="851" d="M79 1229q45 218 192 218q79 0 160 -59q6 -4 23 -17t25 -18t21 -13.5t24.5 -11.5t21.5 -3q27 0 43 25t27 78l157 -30q-44 -218 -192 -218q-79 0 -160 59q-6 4 -23 17t-25 18t-21 13t-24.5 11.5t-21.5 3.5q-27 0 -43 -25.5t-27 -78.5z" />
<glyph unicode="&#x2000;" horiz-adv-x="963" />
<glyph unicode="&#x2001;" horiz-adv-x="1926" />
<glyph unicode="&#x2002;" horiz-adv-x="963" />
<glyph unicode="&#x2003;" horiz-adv-x="1926" />
<glyph unicode="&#x2004;" horiz-adv-x="642" />
<glyph unicode="&#x2005;" horiz-adv-x="481" />
<glyph unicode="&#x2006;" horiz-adv-x="321" />
<glyph unicode="&#x2007;" horiz-adv-x="321" />
<glyph unicode="&#x2008;" horiz-adv-x="240" />
<glyph unicode="&#x2009;" horiz-adv-x="385" />
<glyph unicode="&#x200a;" horiz-adv-x="107" />
<glyph unicode="&#x2010;" horiz-adv-x="823" d="M121 592v176h581v-176h-581z" />
<glyph unicode="&#x2011;" horiz-adv-x="823" d="M121 592v176h581v-176h-581z" />
<glyph unicode="&#x2012;" horiz-adv-x="823" d="M121 592v176h581v-176h-581z" />
<glyph unicode="&#x2013;" horiz-adv-x="1024" d="M0 592v176h1024v-176h-1024z" />
<glyph unicode="&#x2014;" horiz-adv-x="2048" d="M0 592v176h2048v-176h-2048z" />
<glyph unicode="&#x2018;" horiz-adv-x="608" d="M176 1222q0 30 13 58l136 296h124l-105 -233q40 -12 64 -45t24 -76q0 -54 -37 -91t-91 -37t-91 36.5t-37 91.5z" />
<glyph unicode="&#x2019;" horiz-adv-x="608" d="M160 1094l104 232q-40 12 -64 45.5t-24 76.5q0 54 37 91t91 37t91 -37t37 -91q0 -30 -13 -58l-135 -296h-124z" />
<glyph unicode="&#x201a;" horiz-adv-x="608" d="M160 -251l104 233q-40 12 -64 45t-24 76q0 54 37 91t91 37t91 -36.5t37 -91.5q0 -30 -13 -58l-135 -296h-124z" />
<glyph unicode="&#x201c;" horiz-adv-x="942" d="M176 1222q0 30 13 58l136 296h124l-105 -233q40 -12 64 -45t24 -76q0 -54 -37 -91t-91 -37t-91 36.5t-37 91.5zM510 1222q0 30 13 58l135 296h124l-104 -233q40 -12 64 -45t24 -76q0 -54 -37 -91t-91 -37t-91 36.5t-37 91.5z" />
<glyph unicode="&#x201d;" horiz-adv-x="942" d="M160 1094l104 232q-40 12 -64 45.5t-24 76.5q0 54 37 91t91 37t91 -37t37 -91q0 -30 -13 -58l-135 -296h-124zM494 1094l104 232q-40 12 -64 45.5t-24 76.5q0 54 37 91t91 37t91 -37t37 -91q0 -30 -13 -58l-136 -296h-123z" />
<glyph unicode="&#x201e;" horiz-adv-x="942" d="M160 -251l104 233q-40 12 -64 45t-24 76q0 54 37 91t91 37t91 -36.5t37 -91.5q0 -30 -13 -58l-135 -296h-124zM494 -251l104 233q-40 12 -64 45t-24 76q0 54 37 91t91 37t91 -36.5t37 -91.5q0 -30 -13 -58l-136 -296h-123z" />
<glyph unicode="&#x2022;" horiz-adv-x="819" d="M155 680q0 104 74.5 178.5t180 74.5t180.5 -74.5t75 -178.5q0 -105 -75 -179t-180.5 -74t-180 73.5t-74.5 179.5z" />
<glyph unicode="&#x2026;" horiz-adv-x="1824" d="M176 103.5q0 54.5 37 91t91 36.5t91 -36.5t37 -91t-37 -91.5t-91 -37t-91 37t-37 91.5zM784 103.5q0 54.5 37 91t91.5 36.5t91 -36.5t36.5 -91t-36.5 -91.5t-91 -37t-91.5 37t-37 91.5zM1393 103.5q0 54.5 36.5 91t91 36.5t91.5 -36.5t37 -91t-37 -91.5t-91.5 -37t-91 37 t-36.5 91.5z" />
<glyph unicode="&#x202f;" horiz-adv-x="385" />
<glyph unicode="&#x2039;" horiz-adv-x="799" d="M108 590v98l566 355v-173l-377 -231l377 -231v-174z" />
<glyph unicode="&#x203a;" horiz-adv-x="799" d="M126 234v174l377 231l-377 231v173l566 -355v-98z" />
<glyph unicode="&#x205f;" horiz-adv-x="481" />
<glyph unicode="&#x20ac;" horiz-adv-x="1471" d="M26 529v115h131q-3 35 -3 73q0 37 3 74h-131v114h151q62 245 263 399t467.5 154t472.5 -159l-97 -145q-93 65 -182 99.5t-194 34.5q-183 0 -327.5 -106t-200.5 -277h614v-114h-640q-4 -33 -4 -74t4 -73h640v-115h-614q56 -172 200 -278t328 -106q211 0 388 146l103 -145 q-209 -171 -491 -171q-267 0 -467.5 155t-263.5 399h-150z" />
<glyph unicode="&#x2122;" horiz-adv-x="1577" d="M62 1314v120h554v-120h-202v-638h-149v638h-203zM697 676v758h133l245 -368l245 368h133v-758h-145v506l-187 -278h-92l-186 278v-506h-146z" />
<glyph unicode="&#x25fc;" horiz-adv-x="1059" d="M0 0v1060h1060v-1060h-1060z" />
</font>
</defs>
</svg>
